<svg width="16" height="16" viewBox="0 0 16 16" fill="none" xmlns="http://www.w3.org/2000/svg">
<g id="vuesax/bold/pause">
<g id="pause">
<path id="Vector" d="M7.1 12.74V3.26C7.1 2.36 6.72 2 5.76 2H3.34C2.38 2 2 2.36 2 3.26V12.74C2 13.64 2.38 14 3.34 14H5.76C6.72 14 7.1 13.64 7.1 12.74Z" fill="white"/>
<path id="Vector_2" d="M14 12.74V3.26C14 2.36 13.62 2 12.66 2H10.24C9.28667 2 8.9 2.36 8.9 3.26V12.74C8.9 13.64 9.28 14 10.24 14H12.66C13.62 14 14 13.64 14 12.74Z" fill="white"/>
</g>
</g>
</svg>
