<svg width="16" height="16" viewBox="0 0 16 16" fill="none" xmlns="http://www.w3.org/2000/svg">
<g id="vuesax/bold/volume-high">
<g id="volume-high">
<path id="Vector" d="M12 11.1667C11.8933 11.1667 11.7933 11.1333 11.7 11.0667C11.48 10.9 11.4333 10.5867 11.6 10.3667C12.6467 8.97334 12.6467 7.02667 11.6 5.63333C11.4333 5.41333 11.48 5.1 11.7 4.93333C11.92 4.76667 12.2333 4.81333 12.4 5.03333C13.7067 6.78 13.7067 9.22 12.4 10.9667C12.3 11.1 12.1533 11.1667 12 11.1667Z" fill="white"/>
<path id="Vector_2" d="M13.22 12.8333C13.1133 12.8333 13.0133 12.8 12.92 12.7333C12.7 12.5667 12.6533 12.2533 12.82 12.0333C14.6 9.66 14.6 6.34 12.82 3.96667C12.6533 3.74667 12.7 3.43333 12.92 3.26667C13.14 3.1 13.4533 3.14667 13.62 3.36667C15.6667 6.09333 15.6667 9.90667 13.62 12.6333C13.5267 12.7667 13.3733 12.8333 13.22 12.8333Z" fill="white"/>
<path id="Vector_3" d="M9.34666 2.52C8.6 2.10667 7.64666 2.21333 6.67333 2.82L4.72666 4.04C4.59333 4.12 4.43999 4.16667 4.28666 4.16667H3.66666H3.33333C1.71999 4.16667 0.833328 5.05333 0.833328 6.66667V9.33333C0.833328 10.9467 1.71999 11.8333 3.33333 11.8333H3.66666H4.28666C4.43999 11.8333 4.59333 11.88 4.72666 11.96L6.67333 13.18C7.26 13.5467 7.83333 13.7267 8.36666 13.7267C8.71333 13.7267 9.04666 13.6467 9.34666 13.48C10.0867 13.0667 10.5 12.2067 10.5 11.06V4.94C10.5 3.79333 10.0867 2.93333 9.34666 2.52Z" fill="white"/>
</g>
</g>
</svg>
