<svg width="16" height="16" viewBox="0 0 16 16" fill="none" xmlns="http://www.w3.org/2000/svg">
<g id="vuesax/bold/volume-cross">
<g id="volume-cross">
<path id="Vector" d="M15.02 8.94667L14.0533 7.98L14.9867 7.04667C15.18 6.85333 15.18 6.53333 14.9867 6.34C14.7933 6.14667 14.4733 6.14667 14.28 6.34L13.3467 7.27333L12.38 6.30667C12.1867 6.11333 11.8667 6.11333 11.6733 6.30667C11.48 6.5 11.48 6.82 11.6733 7.01333L12.64 7.98L11.6467 8.97333C11.4533 9.16667 11.4533 9.48667 11.6467 9.68C11.7467 9.78 11.8733 9.82667 12 9.82667C12.1267 9.82667 12.2533 9.78 12.3533 9.68L13.3467 8.68667L14.3133 9.65333C14.4133 9.75333 14.54 9.8 14.6667 9.8C14.7933 9.8 14.92 9.75333 15.02 9.65333C15.2133 9.46 15.2133 9.14667 15.02 8.94667Z" fill="white"/>
<path id="Vector_2" d="M9.34666 2.52C8.6 2.10666 7.64666 2.21333 6.67333 2.82L4.72666 4.04C4.59333 4.12 4.43999 4.16666 4.28666 4.16666H3.66666H3.33333C1.71999 4.16666 0.833328 5.05333 0.833328 6.66666V9.33333C0.833328 10.9467 1.71999 11.8333 3.33333 11.8333H3.66666H4.28666C4.43999 11.8333 4.59333 11.88 4.72666 11.96L6.67333 13.18C7.26 13.5467 7.83333 13.7267 8.36666 13.7267C8.71333 13.7267 9.04666 13.6467 9.34666 13.48C10.0867 13.0667 10.5 12.2067 10.5 11.06V4.94C10.5 3.79333 10.0867 2.93333 9.34666 2.52Z" fill="white"/>
</g>
</g>
</svg>
